{"title":"The To Do List 2013 BRRip 480p x264 AAC - VYTO [P2PDL]","uid":9135509,"size":378671726,"categoryP":"video","categoryS":"movies","magnet":"?xt=urn:btih:c5260825dd1131ac45f5df671c96ce06ce2a2eab&amp;dn=The+To+Do+List+2013+BRRip+480p+x264+AAC+-+VYTO+%5BP2PDL%5D&amp;tr=udp%3A%2F%2Ftracker.openbittorrent.com%3A80&amp;tr=udp%3A%2F%2Fopen.demonii.com%3A1337&amp;tr=udp%3A%2F%2Ftracker.coppersurfer.tk%3A6969&amp;tr=udp%3A%2F%2Fexodus.desync.com%3A6969","seeders":1,"leechers":0,"uploader":"Vitamin_X","files":-1,"time":1383406746,"description":"_______ Visit us at our Semi Public Bittorrent Community ________\n  &lt;a href=&quot;\nhttp://p2pdl.com&quot; rel=&quot;nofollow&quot; target=&quot;_NEW&quot;&gt;\nhttp://p2pdl.com&lt;/a&gt;  _____________________________ &lt;a href=&quot; http://p2pdl.com&quot; rel=&quot;nofollow&quot; target=&quot;_NEW&quot;&gt; http://p2pdl.com&lt;/a&gt;\n\n\nThe To Do List 2013 BRRip 480p x264 AAC - VYTO\n\nGenre: Comedy\nPlot: Feeling pressured to become more sexually \nexperienced before she goes to college, \nBrandy Klark makes a list of things to \naccomplish before hitting campus in the fall.\nDirector: Maggie Carey\nStars: Aubrey Plaza, Johnny Simmons, Bill Hader\nRated: Rated R for pervasive strong crude and sexual \ncontent including graphic dialogue, drug and alcohol \nuse, and language - all involving teens \n\nIMDb: &lt;a href=&quot;\nhttp://www.imdb.com/title/tt1758795/&quot; rel=&quot;nofollow&quot; target=&quot;_NEW&quot;&gt;\nhttp://www.imdb.com/title/tt1758795/&lt;/a&gt;\n\n\nGeneral\nFormat                         : MPEG-4\nFile size                      : 352 MiB\nDuration                       : 1h 43mn\nOverall bit rate mode          : Variable\nOverall bit rate               : 473 Kbps\n\nVideo\nFormat                         : AVC\nBit rate                       : 438 Kbps\nWidth                          : 720 pixels\nHeight                         : 400 pixels\nDisplay aspect ratio           : 16:9\nFrame rate mode                : Constant\nFrame rate                     : 23.976 fps\nBit depth                      : 10 bits\nStream size                    : 325 MiB (93%)\nWriting library                : x264 core 138 r2358 9e941d1\n\nAudio\nFormat                         : AAC\nBit rate                       : 31.9 Kbps\nSampling rate                  : 48.0 KHz\nStream size                    : 23.7 MiB (7%)\nLanguage                       : English\n\nSubtitle                       : Yes (English)\n\nSource                         : 720p BluRay DTS x264-ALLiANCE\n\nScreenshots:\n &lt;a href=&quot;\nhttp://ultraimg.com/images/cbgaC.png&quot; rel=&quot;nofollow&quot; target=&quot;_NEW&quot;&gt;\nhttp://ultraimg.com/images/cbgaC.png&lt;/a&gt; &lt;a href=&quot;\nhttp://ultraimg.com/images/mqYnS.png&quot; rel=&quot;nofollow&quot; target=&quot;_NEW&quot;&gt;\nhttp://ultraimg.com/images/mqYnS.png&lt;/a&gt; &lt;a href=&quot;\nhttp://ultraimg.com/images/aX1m.png&quot; rel=&quot;nofollow&quot; target=&quot;_NEW&quot;&gt;\nhttp://ultraimg.com/images/aX1m.png&lt;/a&gt; &lt;a href=&quot;\nhttp://ultraimg.com/images/3Xauw.png&quot; rel=&quot;nofollow&quot; target=&quot;_NEW&quot;&gt;\nhttp://ultraimg.com/images/3Xauw.png&lt;/a&gt; &lt;a href=&quot;\nhttp://ultraimg.com/images/dT8E2.png&quot; rel=&quot;nofollow&quot; target=&quot;_NEW&quot;&gt;\nhttp://ultraimg.com/images/dT8E2.png&lt;/a&gt; &lt;a href=&quot;\nhttp://ultraimg.com/images/Z0x5D.png&quot; rel=&quot;nofollow&quot; target=&quot;_NEW&quot;&gt;\nhttp://ultraimg.com/images/Z0x5D.png&lt;/a&gt; &lt;a href=&quot;\nhttp://ultraimg.com/images/iBynj.png&quot; rel=&quot;nofollow&quot; target=&quot;_NEW&quot;&gt;\nhttp://ultraimg.com/images/iBynj.png&lt;/a&gt; &lt;a href=&quot;\nhttp://ultraimg.com/images/9MPq.png&quot; rel=&quot;nofollow&quot; target=&quot;_NEW&quot;&gt;\nhttp://ultraimg.com/images/9MPq.png&lt;/a&gt; &lt;a href=&quot;\nhttp://ultraimg.com/images/9LWj8.png&quot; rel=&quot;nofollow&quot; target=&quot;_NEW&quot;&gt;\nhttp://ultraimg.com/images/9LWj8.png&lt;/a&gt;\n\n----------------------------------------------------------------------------------------------------\n\n\nEncoded using revolutionary 10bit encoding, which enables us to provide you more crispier \nand sharper images at small sizes, just make sure you follow our instructions without a fault.\nRecommend to you to use latest version of VLC player. Install K-Lite Codec Pack or shark007 codecs\nin case of any kind of problem in playback (For non-VLC Media Player users). Alternatively, install\nCore AVC codecs, the fastest decoder that there is coupled with Community Center Codec Pack and play\non Windows Media Player Classic. Check sample to be sure.\nEnjoy!\n\nEncoder Notes:Looking For Early Access To Anything You Can Provide DVDScr, R5, DVDR, BluRay, Direct\nAudio, Music Releases and Seedboxes. We require dedicated servers, so as to do more \nand fast releases of movies.\nIf You Got anything to offer please contact us at &quot;&lt;a class=&quot;__cf_email__&quot; href=&quot;/cdn-cgi/l/email-protection&quot; data-cfemail=&quot;c6b6b4a186aeb3b5aee8a5a9ab&quot;&gt;[email&amp;#160;protected]&lt;/a&gt;&lt;script cf-hash='f9e31' type=&quot;text/javascript&quot;&gt;\n/* &lt;![CDATA[ */!function(){try{var t=&quot;currentScript&quot;in document?document.currentScript:function(){for(var t=document.getElementsByTagName(&quot;script&quot;),e=t.length;e--;)if(t[e].getAttribute(&quot;cf-hash&quot;))return t[e]}();if(t&amp;&amp;t.previousSibling){var e,r,n,i,c=t.previousSibling,a=c.getAttribute(&quot;data-cfemail&quot;);if(a){for(e=&quot;&quot;,r=parseInt(a.substr(0,2),16),n=2;a.length-n;n+=2)i=parseInt(a.substr(n,2),16)^r,e+=String.fromCharCode(i);e=document.createTextNode(e),c.parentNode.replaceChild(e,c)}}}catch(u){}}();/* ]]&gt; */&lt;/script&gt;&quot;.\n\nFacebook Fan Page:  \nSearch P2PDL on FB and don't forget to hit like!!!\n\nSupport us, please consider a donation.\n\nFor more of our team uploads visit @           &lt;a href=&quot;\nhttp://thepiratebay.se/user/varuttee&quot; rel=&quot;nofollow&quot; target=&quot;_NEW&quot;&gt;\nhttp://thepiratebay.se/user/varuttee&lt;/a&gt;\t","torrent":{"xt":"urn:btih:c5260825dd1131ac45f5df671c96ce06ce2a2eab","amp;dn":"The+To+Do+List+2013+BRRip+480p+x264+AAC+-+VYTO+%5BP2PDL%5D","amp;tr":["udp%3A%2F%2Ftracker.openbittorrent.com%3A80","udp%3A%2F%2Fopen.demonii.com%3A1337","udp%3A%2F%2Ftracker.coppersurfer.tk%3A6969","udp%3A%2F%2Fexodus.desync.com%3A6969"],"infoHash":"c5260825dd1131ac45f5df671c96ce06ce2a2eab","infoHashBuffer":{"type":"Buffer","data":[197,38,8,37,221,17,49,172,69,245,223,103,28,150,206,6,206,42,46,171]},"announce":[],"urlList":[]}}